<mxfile host="Electron" modified="2024-01-16T22:02:20.224Z" agent="Mozilla/5.0 (Windows NT 10.0; Win64; x64) AppleWebKit/537.36 (KHTML, like Gecko) draw.io/22.1.2 Chrome/114.0.5735.289 Electron/25.9.4 Safari/537.36" etag="S2jnyPx_gsJiM3c150S7" version="22.1.2" type="device">
  <diagram name="Page-1" id="nunjTA4fvcYXI3Nan1ei">
    <mxGraphModel dx="2623" dy="1025" grid="1" gridSize="10" guides="1" tooltips="1" connect="1" arrows="1" fold="1" page="1" pageScale="1" pageWidth="850" pageHeight="1100" math="0" shadow="0">
      <root>
        <mxCell id="0" />
        <mxCell id="1" parent="0" />
        <mxCell id="y64R_HTfaRWRjPJeSL_5-12" style="edgeStyle=orthogonalEdgeStyle;rounded=0;orthogonalLoop=1;jettySize=auto;html=1;exitX=0.5;exitY=1;exitDx=0;exitDy=0;entryX=0.5;entryY=0;entryDx=0;entryDy=0;" parent="1" source="y64R_HTfaRWRjPJeSL_5-4" target="y64R_HTfaRWRjPJeSL_5-5" edge="1">
          <mxGeometry relative="1" as="geometry" />
        </mxCell>
        <mxCell id="y64R_HTfaRWRjPJeSL_5-17" style="edgeStyle=orthogonalEdgeStyle;rounded=0;orthogonalLoop=1;jettySize=auto;html=1;exitX=0.5;exitY=1;exitDx=0;exitDy=0;entryX=0.5;entryY=0;entryDx=0;entryDy=0;" parent="1" source="y64R_HTfaRWRjPJeSL_5-4" target="y64R_HTfaRWRjPJeSL_5-16" edge="1">
          <mxGeometry relative="1" as="geometry" />
        </mxCell>
        <mxCell id="y64R_HTfaRWRjPJeSL_5-4" value="UserService -&amp;nbsp; Сервис для пользователей&amp;nbsp;" style="rounded=1;whiteSpace=wrap;html=1;" parent="1" vertex="1">
          <mxGeometry x="-160" y="90" width="160" height="70" as="geometry" />
        </mxCell>
        <mxCell id="y64R_HTfaRWRjPJeSL_5-5" value="" style="rounded=1;whiteSpace=wrap;html=1;" parent="1" vertex="1">
          <mxGeometry x="40" y="200" width="680" height="490" as="geometry" />
        </mxCell>
        <mxCell id="y64R_HTfaRWRjPJeSL_5-6" value="База данных Users" style="text;html=1;strokeColor=none;fillColor=none;align=center;verticalAlign=middle;whiteSpace=wrap;rounded=0;" parent="1" vertex="1">
          <mxGeometry x="340" y="210" width="110" height="30" as="geometry" />
        </mxCell>
        <mxCell id="y64R_HTfaRWRjPJeSL_5-7" value="Users" style="swimlane;fontStyle=0;childLayout=stackLayout;horizontal=1;startSize=30;horizontalStack=0;resizeParent=1;resizeParentMax=0;resizeLast=0;collapsible=1;marginBottom=0;whiteSpace=wrap;html=1;" parent="1" vertex="1">
          <mxGeometry x="60" y="260" width="140" height="180" as="geometry" />
        </mxCell>
        <mxCell id="y64R_HTfaRWRjPJeSL_5-8" value="User_ID" style="text;strokeColor=none;fillColor=none;align=left;verticalAlign=middle;spacingLeft=4;spacingRight=4;overflow=hidden;points=[[0,0.5],[1,0.5]];portConstraint=eastwest;rotatable=0;whiteSpace=wrap;html=1;" parent="y64R_HTfaRWRjPJeSL_5-7" vertex="1">
          <mxGeometry y="30" width="140" height="30" as="geometry" />
        </mxCell>
        <mxCell id="y64R_HTfaRWRjPJeSL_5-10" value="Login" style="text;strokeColor=none;fillColor=none;align=left;verticalAlign=middle;spacingLeft=4;spacingRight=4;overflow=hidden;points=[[0,0.5],[1,0.5]];portConstraint=eastwest;rotatable=0;whiteSpace=wrap;html=1;" parent="y64R_HTfaRWRjPJeSL_5-7" vertex="1">
          <mxGeometry y="60" width="140" height="30" as="geometry" />
        </mxCell>
        <mxCell id="AtE-gss990WMgqZODpJQ-1" value="Password" style="text;strokeColor=none;fillColor=none;align=left;verticalAlign=middle;spacingLeft=4;spacingRight=4;overflow=hidden;points=[[0,0.5],[1,0.5]];portConstraint=eastwest;rotatable=0;whiteSpace=wrap;html=1;" vertex="1" parent="y64R_HTfaRWRjPJeSL_5-7">
          <mxGeometry y="90" width="140" height="30" as="geometry" />
        </mxCell>
        <mxCell id="y64R_HTfaRWRjPJeSL_5-13" value="Email" style="text;strokeColor=none;fillColor=none;align=left;verticalAlign=middle;spacingLeft=4;spacingRight=4;overflow=hidden;points=[[0,0.5],[1,0.5]];portConstraint=eastwest;rotatable=0;whiteSpace=wrap;html=1;" parent="y64R_HTfaRWRjPJeSL_5-7" vertex="1">
          <mxGeometry y="120" width="140" height="30" as="geometry" />
        </mxCell>
        <mxCell id="y64R_HTfaRWRjPJeSL_5-14" value="Phone" style="text;strokeColor=none;fillColor=none;align=left;verticalAlign=middle;spacingLeft=4;spacingRight=4;overflow=hidden;points=[[0,0.5],[1,0.5]];portConstraint=eastwest;rotatable=0;whiteSpace=wrap;html=1;" parent="y64R_HTfaRWRjPJeSL_5-7" vertex="1">
          <mxGeometry y="150" width="140" height="30" as="geometry" />
        </mxCell>
        <mxCell id="y64R_HTfaRWRjPJeSL_5-16" value="" style="rounded=1;whiteSpace=wrap;html=1;" parent="1" vertex="1">
          <mxGeometry x="-850" y="200" width="680" height="310" as="geometry" />
        </mxCell>
        <mxCell id="y64R_HTfaRWRjPJeSL_5-18" value="Методы" style="text;html=1;strokeColor=none;fillColor=none;align=center;verticalAlign=middle;whiteSpace=wrap;rounded=0;" parent="1" vertex="1">
          <mxGeometry x="-540" y="210" width="60" height="30" as="geometry" />
        </mxCell>
        <mxCell id="y64R_HTfaRWRjPJeSL_5-19" value="&lt;ol&gt;&lt;li&gt;Получить всех пользователей&lt;/li&gt;&lt;li&gt;Получить пользователя по ID&lt;/li&gt;&lt;li&gt;Добавить пользователя&lt;/li&gt;&lt;li&gt;Обновление данных пользователя&lt;/li&gt;&lt;li&gt;Удаление пользователя&lt;/li&gt;&lt;li&gt;Получить избранные книги пользователя по ID&lt;/li&gt;&lt;li&gt;Получить избранные фильмы пользователя по ID&lt;/li&gt;&lt;/ol&gt;" style="text;strokeColor=none;fillColor=none;html=1;whiteSpace=wrap;verticalAlign=middle;overflow=hidden;" parent="1" vertex="1">
          <mxGeometry x="-630" y="210" width="680" height="270" as="geometry" />
        </mxCell>
        <mxCell id="y64R_HTfaRWRjPJeSL_5-20" value="Favorite_movies" style="swimlane;fontStyle=0;childLayout=stackLayout;horizontal=1;startSize=30;horizontalStack=0;resizeParent=1;resizeParentMax=0;resizeLast=0;collapsible=1;marginBottom=0;whiteSpace=wrap;html=1;" parent="1" vertex="1">
          <mxGeometry x="260" y="260" width="140" height="90" as="geometry" />
        </mxCell>
        <mxCell id="y64R_HTfaRWRjPJeSL_5-23" value="User_ID" style="text;strokeColor=none;fillColor=none;align=left;verticalAlign=middle;spacingLeft=4;spacingRight=4;overflow=hidden;points=[[0,0.5],[1,0.5]];portConstraint=eastwest;rotatable=0;whiteSpace=wrap;html=1;" parent="y64R_HTfaRWRjPJeSL_5-20" vertex="1">
          <mxGeometry y="30" width="140" height="30" as="geometry" />
        </mxCell>
        <mxCell id="y64R_HTfaRWRjPJeSL_5-22" value="Film_ID" style="text;strokeColor=none;fillColor=none;align=left;verticalAlign=middle;spacingLeft=4;spacingRight=4;overflow=hidden;points=[[0,0.5],[1,0.5]];portConstraint=eastwest;rotatable=0;whiteSpace=wrap;html=1;" parent="y64R_HTfaRWRjPJeSL_5-20" vertex="1">
          <mxGeometry y="60" width="140" height="30" as="geometry" />
        </mxCell>
        <mxCell id="y64R_HTfaRWRjPJeSL_5-25" style="rounded=0;orthogonalLoop=1;jettySize=auto;html=1;exitX=0;exitY=0.5;exitDx=0;exitDy=0;entryX=1;entryY=0.5;entryDx=0;entryDy=0;" parent="1" source="y64R_HTfaRWRjPJeSL_5-23" target="y64R_HTfaRWRjPJeSL_5-8" edge="1">
          <mxGeometry relative="1" as="geometry" />
        </mxCell>
        <mxCell id="y64R_HTfaRWRjPJeSL_5-27" value="Favorite_books" style="swimlane;fontStyle=0;childLayout=stackLayout;horizontal=1;startSize=30;horizontalStack=0;resizeParent=1;resizeParentMax=0;resizeLast=0;collapsible=1;marginBottom=0;whiteSpace=wrap;html=1;" parent="1" vertex="1">
          <mxGeometry x="260" y="450" width="140" height="90" as="geometry" />
        </mxCell>
        <mxCell id="y64R_HTfaRWRjPJeSL_5-30" value="User_ID" style="text;strokeColor=none;fillColor=none;align=left;verticalAlign=middle;spacingLeft=4;spacingRight=4;overflow=hidden;points=[[0,0.5],[1,0.5]];portConstraint=eastwest;rotatable=0;whiteSpace=wrap;html=1;" parent="y64R_HTfaRWRjPJeSL_5-27" vertex="1">
          <mxGeometry y="30" width="140" height="30" as="geometry" />
        </mxCell>
        <mxCell id="y64R_HTfaRWRjPJeSL_5-29" value="Book_ID" style="text;strokeColor=none;fillColor=none;align=left;verticalAlign=middle;spacingLeft=4;spacingRight=4;overflow=hidden;points=[[0,0.5],[1,0.5]];portConstraint=eastwest;rotatable=0;whiteSpace=wrap;html=1;" parent="y64R_HTfaRWRjPJeSL_5-27" vertex="1">
          <mxGeometry y="60" width="140" height="30" as="geometry" />
        </mxCell>
        <mxCell id="y64R_HTfaRWRjPJeSL_5-31" style="rounded=0;orthogonalLoop=1;jettySize=auto;html=1;exitX=0;exitY=0.5;exitDx=0;exitDy=0;entryX=1;entryY=0.5;entryDx=0;entryDy=0;" parent="1" source="y64R_HTfaRWRjPJeSL_5-30" target="y64R_HTfaRWRjPJeSL_5-8" edge="1">
          <mxGeometry relative="1" as="geometry" />
        </mxCell>
        <mxCell id="y64R_HTfaRWRjPJeSL_5-34" style="edgeStyle=orthogonalEdgeStyle;rounded=0;orthogonalLoop=1;jettySize=auto;html=1;exitX=0.5;exitY=1;exitDx=0;exitDy=0;entryX=0.5;entryY=0;entryDx=0;entryDy=0;" parent="1" source="y64R_HTfaRWRjPJeSL_5-32" target="y64R_HTfaRWRjPJeSL_5-33" edge="1">
          <mxGeometry relative="1" as="geometry" />
        </mxCell>
        <mxCell id="y64R_HTfaRWRjPJeSL_5-87" style="edgeStyle=orthogonalEdgeStyle;rounded=0;orthogonalLoop=1;jettySize=auto;html=1;exitX=0.5;exitY=1;exitDx=0;exitDy=0;entryX=0.5;entryY=0;entryDx=0;entryDy=0;" parent="1" source="y64R_HTfaRWRjPJeSL_5-32" target="y64R_HTfaRWRjPJeSL_5-85" edge="1">
          <mxGeometry relative="1" as="geometry" />
        </mxCell>
        <mxCell id="y64R_HTfaRWRjPJeSL_5-32" value="BookService -&amp;nbsp; Сервис для&amp;nbsp;&lt;br&gt;книг" style="rounded=1;whiteSpace=wrap;html=1;" parent="1" vertex="1">
          <mxGeometry x="-160" y="730" width="160" height="70" as="geometry" />
        </mxCell>
        <mxCell id="y64R_HTfaRWRjPJeSL_5-33" value="" style="rounded=1;whiteSpace=wrap;html=1;" parent="1" vertex="1">
          <mxGeometry x="40" y="840" width="680" height="520" as="geometry" />
        </mxCell>
        <mxCell id="y64R_HTfaRWRjPJeSL_5-36" value="FK" style="rounded=0;whiteSpace=wrap;html=1;" parent="1" vertex="1">
          <mxGeometry x="370" y="290" width="30" height="60" as="geometry" />
        </mxCell>
        <mxCell id="y64R_HTfaRWRjPJeSL_5-38" value="FK" style="rounded=0;whiteSpace=wrap;html=1;" parent="1" vertex="1">
          <mxGeometry x="370" y="480" width="30" height="60" as="geometry" />
        </mxCell>
        <mxCell id="y64R_HTfaRWRjPJeSL_5-39" value="Books" style="swimlane;fontStyle=0;childLayout=stackLayout;horizontal=1;startSize=30;horizontalStack=0;resizeParent=1;resizeParentMax=0;resizeLast=0;collapsible=1;marginBottom=0;whiteSpace=wrap;html=1;" parent="1" vertex="1">
          <mxGeometry x="520" y="900" width="140" height="210" as="geometry" />
        </mxCell>
        <mxCell id="y64R_HTfaRWRjPJeSL_5-40" value="Book_ID" style="text;strokeColor=none;fillColor=none;align=left;verticalAlign=middle;spacingLeft=4;spacingRight=4;overflow=hidden;points=[[0,0.5],[1,0.5]];portConstraint=eastwest;rotatable=0;whiteSpace=wrap;html=1;" parent="y64R_HTfaRWRjPJeSL_5-39" vertex="1">
          <mxGeometry y="30" width="140" height="30" as="geometry" />
        </mxCell>
        <mxCell id="y64R_HTfaRWRjPJeSL_5-41" value="Title" style="text;strokeColor=none;fillColor=none;align=left;verticalAlign=middle;spacingLeft=4;spacingRight=4;overflow=hidden;points=[[0,0.5],[1,0.5]];portConstraint=eastwest;rotatable=0;whiteSpace=wrap;html=1;" parent="y64R_HTfaRWRjPJeSL_5-39" vertex="1">
          <mxGeometry y="60" width="140" height="30" as="geometry" />
        </mxCell>
        <mxCell id="y64R_HTfaRWRjPJeSL_5-89" value="Description" style="text;strokeColor=none;fillColor=none;align=left;verticalAlign=middle;spacingLeft=4;spacingRight=4;overflow=hidden;points=[[0,0.5],[1,0.5]];portConstraint=eastwest;rotatable=0;whiteSpace=wrap;html=1;" parent="y64R_HTfaRWRjPJeSL_5-39" vertex="1">
          <mxGeometry y="90" width="140" height="30" as="geometry" />
        </mxCell>
        <mxCell id="y64R_HTfaRWRjPJeSL_5-44" value="Release_Year" style="text;strokeColor=none;fillColor=none;align=left;verticalAlign=middle;spacingLeft=4;spacingRight=4;overflow=hidden;points=[[0,0.5],[1,0.5]];portConstraint=eastwest;rotatable=0;whiteSpace=wrap;html=1;" parent="y64R_HTfaRWRjPJeSL_5-39" vertex="1">
          <mxGeometry y="120" width="140" height="30" as="geometry" />
        </mxCell>
        <mxCell id="y64R_HTfaRWRjPJeSL_5-45" value="Publisher_ID" style="text;strokeColor=none;fillColor=none;align=left;verticalAlign=middle;spacingLeft=4;spacingRight=4;overflow=hidden;points=[[0,0.5],[1,0.5]];portConstraint=eastwest;rotatable=0;whiteSpace=wrap;html=1;" parent="y64R_HTfaRWRjPJeSL_5-39" vertex="1">
          <mxGeometry y="150" width="140" height="30" as="geometry" />
        </mxCell>
        <mxCell id="y64R_HTfaRWRjPJeSL_5-103" value="File_Path" style="text;strokeColor=none;fillColor=none;align=left;verticalAlign=middle;spacingLeft=4;spacingRight=4;overflow=hidden;points=[[0,0.5],[1,0.5]];portConstraint=eastwest;rotatable=0;whiteSpace=wrap;html=1;" parent="y64R_HTfaRWRjPJeSL_5-39" vertex="1">
          <mxGeometry y="180" width="140" height="30" as="geometry" />
        </mxCell>
        <mxCell id="y64R_HTfaRWRjPJeSL_5-51" value="Publishers" style="swimlane;fontStyle=0;childLayout=stackLayout;horizontal=1;startSize=30;horizontalStack=0;resizeParent=1;resizeParentMax=0;resizeLast=0;collapsible=1;marginBottom=0;whiteSpace=wrap;html=1;" parent="1" vertex="1">
          <mxGeometry x="530" y="1130" width="140" height="90" as="geometry" />
        </mxCell>
        <mxCell id="y64R_HTfaRWRjPJeSL_5-52" value="Publisher_ID" style="text;strokeColor=none;fillColor=none;align=left;verticalAlign=middle;spacingLeft=4;spacingRight=4;overflow=hidden;points=[[0,0.5],[1,0.5]];portConstraint=eastwest;rotatable=0;whiteSpace=wrap;html=1;" parent="y64R_HTfaRWRjPJeSL_5-51" vertex="1">
          <mxGeometry y="30" width="140" height="30" as="geometry" />
        </mxCell>
        <mxCell id="y64R_HTfaRWRjPJeSL_5-53" value="Publisher_Name" style="text;strokeColor=none;fillColor=none;align=left;verticalAlign=middle;spacingLeft=4;spacingRight=4;overflow=hidden;points=[[0,0.5],[1,0.5]];portConstraint=eastwest;rotatable=0;whiteSpace=wrap;html=1;" parent="y64R_HTfaRWRjPJeSL_5-51" vertex="1">
          <mxGeometry y="60" width="140" height="30" as="geometry" />
        </mxCell>
        <mxCell id="y64R_HTfaRWRjPJeSL_5-56" style="rounded=0;orthogonalLoop=1;jettySize=auto;html=1;exitX=0;exitY=0.5;exitDx=0;exitDy=0;entryX=1;entryY=0.75;entryDx=0;entryDy=0;" parent="1" source="y64R_HTfaRWRjPJeSL_5-40" target="y64R_HTfaRWRjPJeSL_5-38" edge="1">
          <mxGeometry relative="1" as="geometry" />
        </mxCell>
        <mxCell id="y64R_HTfaRWRjPJeSL_5-57" style="edgeStyle=orthogonalEdgeStyle;rounded=0;orthogonalLoop=1;jettySize=auto;html=1;exitX=1;exitY=0.5;exitDx=0;exitDy=0;entryX=1;entryY=0.5;entryDx=0;entryDy=0;" parent="1" source="y64R_HTfaRWRjPJeSL_5-52" target="y64R_HTfaRWRjPJeSL_5-45" edge="1">
          <mxGeometry relative="1" as="geometry" />
        </mxCell>
        <mxCell id="y64R_HTfaRWRjPJeSL_5-58" value="Authors" style="swimlane;fontStyle=0;childLayout=stackLayout;horizontal=1;startSize=30;horizontalStack=0;resizeParent=1;resizeParentMax=0;resizeLast=0;collapsible=1;marginBottom=0;whiteSpace=wrap;html=1;" parent="1" vertex="1">
          <mxGeometry x="90" y="900" width="140" height="150" as="geometry" />
        </mxCell>
        <mxCell id="y64R_HTfaRWRjPJeSL_5-59" value="Author_ID" style="text;strokeColor=none;fillColor=none;align=left;verticalAlign=middle;spacingLeft=4;spacingRight=4;overflow=hidden;points=[[0,0.5],[1,0.5]];portConstraint=eastwest;rotatable=0;whiteSpace=wrap;html=1;" parent="y64R_HTfaRWRjPJeSL_5-58" vertex="1">
          <mxGeometry y="30" width="140" height="30" as="geometry" />
        </mxCell>
        <mxCell id="y64R_HTfaRWRjPJeSL_5-60" value="Firstname" style="text;strokeColor=none;fillColor=none;align=left;verticalAlign=middle;spacingLeft=4;spacingRight=4;overflow=hidden;points=[[0,0.5],[1,0.5]];portConstraint=eastwest;rotatable=0;whiteSpace=wrap;html=1;" parent="y64R_HTfaRWRjPJeSL_5-58" vertex="1">
          <mxGeometry y="60" width="140" height="30" as="geometry" />
        </mxCell>
        <mxCell id="y64R_HTfaRWRjPJeSL_5-63" value="Secondname" style="text;strokeColor=none;fillColor=none;align=left;verticalAlign=middle;spacingLeft=4;spacingRight=4;overflow=hidden;points=[[0,0.5],[1,0.5]];portConstraint=eastwest;rotatable=0;whiteSpace=wrap;html=1;" parent="y64R_HTfaRWRjPJeSL_5-58" vertex="1">
          <mxGeometry y="90" width="140" height="30" as="geometry" />
        </mxCell>
        <mxCell id="y64R_HTfaRWRjPJeSL_5-61" value="Patronymic" style="text;strokeColor=none;fillColor=none;align=left;verticalAlign=middle;spacingLeft=4;spacingRight=4;overflow=hidden;points=[[0,0.5],[1,0.5]];portConstraint=eastwest;rotatable=0;whiteSpace=wrap;html=1;" parent="y64R_HTfaRWRjPJeSL_5-58" vertex="1">
          <mxGeometry y="120" width="140" height="30" as="geometry" />
        </mxCell>
        <mxCell id="y64R_HTfaRWRjPJeSL_5-64" value="Authors_Books" style="swimlane;fontStyle=0;childLayout=stackLayout;horizontal=1;startSize=30;horizontalStack=0;resizeParent=1;resizeParentMax=0;resizeLast=0;collapsible=1;marginBottom=0;whiteSpace=wrap;html=1;" parent="1" vertex="1">
          <mxGeometry x="296" y="946" width="140" height="90" as="geometry" />
        </mxCell>
        <mxCell id="y64R_HTfaRWRjPJeSL_5-65" value="Author_ID" style="text;strokeColor=none;fillColor=none;align=left;verticalAlign=middle;spacingLeft=4;spacingRight=4;overflow=hidden;points=[[0,0.5],[1,0.5]];portConstraint=eastwest;rotatable=0;whiteSpace=wrap;html=1;" parent="y64R_HTfaRWRjPJeSL_5-64" vertex="1">
          <mxGeometry y="30" width="140" height="30" as="geometry" />
        </mxCell>
        <mxCell id="y64R_HTfaRWRjPJeSL_5-66" value="Book_ID" style="text;strokeColor=none;fillColor=none;align=left;verticalAlign=middle;spacingLeft=4;spacingRight=4;overflow=hidden;points=[[0,0.5],[1,0.5]];portConstraint=eastwest;rotatable=0;whiteSpace=wrap;html=1;" parent="y64R_HTfaRWRjPJeSL_5-64" vertex="1">
          <mxGeometry y="60" width="140" height="30" as="geometry" />
        </mxCell>
        <mxCell id="y64R_HTfaRWRjPJeSL_5-69" value="FK" style="rounded=0;whiteSpace=wrap;html=1;" parent="1" vertex="1">
          <mxGeometry x="406" y="976" width="30" height="60" as="geometry" />
        </mxCell>
        <mxCell id="y64R_HTfaRWRjPJeSL_5-72" style="rounded=0;orthogonalLoop=1;jettySize=auto;html=1;exitX=0;exitY=0.5;exitDx=0;exitDy=0;entryX=1;entryY=0.75;entryDx=0;entryDy=0;" parent="1" source="y64R_HTfaRWRjPJeSL_5-40" target="y64R_HTfaRWRjPJeSL_5-69" edge="1">
          <mxGeometry relative="1" as="geometry" />
        </mxCell>
        <mxCell id="y64R_HTfaRWRjPJeSL_5-73" style="rounded=0;orthogonalLoop=1;jettySize=auto;html=1;exitX=1;exitY=0.5;exitDx=0;exitDy=0;entryX=0;entryY=0.5;entryDx=0;entryDy=0;" parent="1" source="y64R_HTfaRWRjPJeSL_5-59" target="y64R_HTfaRWRjPJeSL_5-65" edge="1">
          <mxGeometry relative="1" as="geometry" />
        </mxCell>
        <mxCell id="y64R_HTfaRWRjPJeSL_5-74" value="Genres" style="swimlane;fontStyle=0;childLayout=stackLayout;horizontal=1;startSize=30;horizontalStack=0;resizeParent=1;resizeParentMax=0;resizeLast=0;collapsible=1;marginBottom=0;whiteSpace=wrap;html=1;" parent="1" vertex="1">
          <mxGeometry x="90" y="1090" width="140" height="90" as="geometry" />
        </mxCell>
        <mxCell id="y64R_HTfaRWRjPJeSL_5-75" value="Genre_ID" style="text;strokeColor=none;fillColor=none;align=left;verticalAlign=middle;spacingLeft=4;spacingRight=4;overflow=hidden;points=[[0,0.5],[1,0.5]];portConstraint=eastwest;rotatable=0;whiteSpace=wrap;html=1;" parent="y64R_HTfaRWRjPJeSL_5-74" vertex="1">
          <mxGeometry y="30" width="140" height="30" as="geometry" />
        </mxCell>
        <mxCell id="y64R_HTfaRWRjPJeSL_5-76" value="Name" style="text;strokeColor=none;fillColor=none;align=left;verticalAlign=middle;spacingLeft=4;spacingRight=4;overflow=hidden;points=[[0,0.5],[1,0.5]];portConstraint=eastwest;rotatable=0;whiteSpace=wrap;html=1;" parent="y64R_HTfaRWRjPJeSL_5-74" vertex="1">
          <mxGeometry y="60" width="140" height="30" as="geometry" />
        </mxCell>
        <mxCell id="y64R_HTfaRWRjPJeSL_5-78" value="Books_Genres" style="swimlane;fontStyle=0;childLayout=stackLayout;horizontal=1;startSize=30;horizontalStack=0;resizeParent=1;resizeParentMax=0;resizeLast=0;collapsible=1;marginBottom=0;whiteSpace=wrap;html=1;" parent="1" vertex="1">
          <mxGeometry x="296" y="1090" width="140" height="90" as="geometry" />
        </mxCell>
        <mxCell id="y64R_HTfaRWRjPJeSL_5-79" value="Genre_ID" style="text;strokeColor=none;fillColor=none;align=left;verticalAlign=middle;spacingLeft=4;spacingRight=4;overflow=hidden;points=[[0,0.5],[1,0.5]];portConstraint=eastwest;rotatable=0;whiteSpace=wrap;html=1;" parent="y64R_HTfaRWRjPJeSL_5-78" vertex="1">
          <mxGeometry y="30" width="140" height="30" as="geometry" />
        </mxCell>
        <mxCell id="y64R_HTfaRWRjPJeSL_5-80" value="Book_ID" style="text;strokeColor=none;fillColor=none;align=left;verticalAlign=middle;spacingLeft=4;spacingRight=4;overflow=hidden;points=[[0,0.5],[1,0.5]];portConstraint=eastwest;rotatable=0;whiteSpace=wrap;html=1;" parent="y64R_HTfaRWRjPJeSL_5-78" vertex="1">
          <mxGeometry y="60" width="140" height="30" as="geometry" />
        </mxCell>
        <mxCell id="y64R_HTfaRWRjPJeSL_5-82" value="FK" style="rounded=0;whiteSpace=wrap;html=1;" parent="1" vertex="1">
          <mxGeometry x="406" y="1120" width="30" height="60" as="geometry" />
        </mxCell>
        <mxCell id="y64R_HTfaRWRjPJeSL_5-83" style="rounded=0;orthogonalLoop=1;jettySize=auto;html=1;exitX=0;exitY=0.5;exitDx=0;exitDy=0;entryX=1;entryY=0.5;entryDx=0;entryDy=0;" parent="1" source="y64R_HTfaRWRjPJeSL_5-40" target="y64R_HTfaRWRjPJeSL_5-80" edge="1">
          <mxGeometry relative="1" as="geometry" />
        </mxCell>
        <mxCell id="y64R_HTfaRWRjPJeSL_5-84" style="rounded=0;orthogonalLoop=1;jettySize=auto;html=1;exitX=1;exitY=0.5;exitDx=0;exitDy=0;entryX=0;entryY=0.5;entryDx=0;entryDy=0;" parent="1" source="y64R_HTfaRWRjPJeSL_5-75" target="y64R_HTfaRWRjPJeSL_5-79" edge="1">
          <mxGeometry relative="1" as="geometry" />
        </mxCell>
        <mxCell id="y64R_HTfaRWRjPJeSL_5-85" value="" style="rounded=1;whiteSpace=wrap;html=1;" parent="1" vertex="1">
          <mxGeometry x="-840" y="839.5" width="680" height="310" as="geometry" />
        </mxCell>
        <mxCell id="y64R_HTfaRWRjPJeSL_5-86" value="Методы" style="text;html=1;strokeColor=none;fillColor=none;align=center;verticalAlign=middle;whiteSpace=wrap;rounded=0;" parent="1" vertex="1">
          <mxGeometry x="-530" y="846" width="60" height="30" as="geometry" />
        </mxCell>
        <mxCell id="y64R_HTfaRWRjPJeSL_5-88" value="&lt;ol&gt;&lt;li&gt;Получить все книги&lt;/li&gt;&lt;li&gt;Получить все жанры&lt;/li&gt;&lt;li&gt;Получить всех авторов&lt;/li&gt;&lt;li&gt;Получить все издания&lt;/li&gt;&lt;li&gt;Получить книгу по ID&lt;/li&gt;&lt;li&gt;Получить все книги автора&lt;/li&gt;&lt;li&gt;Получить книги по жанрам&lt;/li&gt;&lt;li&gt;Получить книги по изданиям&lt;/li&gt;&lt;li&gt;Добавить книги&lt;/li&gt;&lt;li&gt;Добавить жанр&lt;/li&gt;&lt;li&gt;Добавить Автора&lt;/li&gt;&lt;li&gt;Добавить издание&lt;/li&gt;&lt;li&gt;Обновить данные книги&lt;/li&gt;&lt;li&gt;Обновить название жанра&lt;/li&gt;&lt;li&gt;Обновить данные автора&lt;/li&gt;&lt;li&gt;обновить данные издания&lt;/li&gt;&lt;li&gt;Удалить жанр&lt;/li&gt;&lt;li&gt;Удалить автора&lt;/li&gt;&lt;li&gt;Удалить книгу&lt;/li&gt;&lt;li&gt;Удалить издание&lt;/li&gt;&lt;/ol&gt;" style="text;strokeColor=none;fillColor=none;html=1;whiteSpace=wrap;verticalAlign=middle;overflow=hidden;" parent="1" vertex="1">
          <mxGeometry x="-810" y="833.5" width="580" height="314" as="geometry" />
        </mxCell>
        <mxCell id="y64R_HTfaRWRjPJeSL_5-155" style="edgeStyle=orthogonalEdgeStyle;rounded=0;orthogonalLoop=1;jettySize=auto;html=1;exitX=0.5;exitY=1;exitDx=0;exitDy=0;entryX=0.5;entryY=0;entryDx=0;entryDy=0;" parent="1" source="y64R_HTfaRWRjPJeSL_5-90" target="y64R_HTfaRWRjPJeSL_5-92" edge="1">
          <mxGeometry relative="1" as="geometry" />
        </mxCell>
        <mxCell id="y64R_HTfaRWRjPJeSL_5-157" style="edgeStyle=orthogonalEdgeStyle;rounded=0;orthogonalLoop=1;jettySize=auto;html=1;exitX=0.5;exitY=1;exitDx=0;exitDy=0;entryX=0.5;entryY=0;entryDx=0;entryDy=0;" parent="1" source="y64R_HTfaRWRjPJeSL_5-90" target="y64R_HTfaRWRjPJeSL_5-156" edge="1">
          <mxGeometry relative="1" as="geometry" />
        </mxCell>
        <mxCell id="y64R_HTfaRWRjPJeSL_5-90" value="MovieService - Сервис для фильмов" style="rounded=1;whiteSpace=wrap;html=1;" parent="1" vertex="1">
          <mxGeometry x="1810" y="125" width="160" height="60" as="geometry" />
        </mxCell>
        <mxCell id="y64R_HTfaRWRjPJeSL_5-92" value="" style="rounded=1;whiteSpace=wrap;html=1;" parent="1" vertex="1">
          <mxGeometry x="2020" y="235" width="1180" height="630" as="geometry" />
        </mxCell>
        <mxCell id="y64R_HTfaRWRjPJeSL_5-93" value="База данных Movies" style="text;html=1;strokeColor=none;fillColor=none;align=center;verticalAlign=middle;whiteSpace=wrap;rounded=0;" parent="1" vertex="1">
          <mxGeometry x="2540" y="240" width="130" height="30" as="geometry" />
        </mxCell>
        <mxCell id="y64R_HTfaRWRjPJeSL_5-94" value="Films" style="swimlane;fontStyle=0;childLayout=stackLayout;horizontal=1;startSize=30;horizontalStack=0;resizeParent=1;resizeParentMax=0;resizeLast=0;collapsible=1;marginBottom=0;whiteSpace=wrap;html=1;" parent="1" vertex="1">
          <mxGeometry x="2500" y="355" width="140" height="180" as="geometry" />
        </mxCell>
        <mxCell id="y64R_HTfaRWRjPJeSL_5-95" value="Film_ID" style="text;strokeColor=none;fillColor=none;align=left;verticalAlign=middle;spacingLeft=4;spacingRight=4;overflow=hidden;points=[[0,0.5],[1,0.5]];portConstraint=eastwest;rotatable=0;whiteSpace=wrap;html=1;" parent="y64R_HTfaRWRjPJeSL_5-94" vertex="1">
          <mxGeometry y="30" width="140" height="30" as="geometry" />
        </mxCell>
        <mxCell id="y64R_HTfaRWRjPJeSL_5-96" value="Title" style="text;strokeColor=none;fillColor=none;align=left;verticalAlign=middle;spacingLeft=4;spacingRight=4;overflow=hidden;points=[[0,0.5],[1,0.5]];portConstraint=eastwest;rotatable=0;whiteSpace=wrap;html=1;" parent="y64R_HTfaRWRjPJeSL_5-94" vertex="1">
          <mxGeometry y="60" width="140" height="30" as="geometry" />
        </mxCell>
        <mxCell id="y64R_HTfaRWRjPJeSL_5-102" value="Description" style="text;strokeColor=none;fillColor=none;align=left;verticalAlign=middle;spacingLeft=4;spacingRight=4;overflow=hidden;points=[[0,0.5],[1,0.5]];portConstraint=eastwest;rotatable=0;whiteSpace=wrap;html=1;" parent="y64R_HTfaRWRjPJeSL_5-94" vertex="1">
          <mxGeometry y="90" width="140" height="30" as="geometry" />
        </mxCell>
        <mxCell id="y64R_HTfaRWRjPJeSL_5-97" value="File_Path" style="text;strokeColor=none;fillColor=none;align=left;verticalAlign=middle;spacingLeft=4;spacingRight=4;overflow=hidden;points=[[0,0.5],[1,0.5]];portConstraint=eastwest;rotatable=0;whiteSpace=wrap;html=1;" parent="y64R_HTfaRWRjPJeSL_5-94" vertex="1">
          <mxGeometry y="120" width="140" height="30" as="geometry" />
        </mxCell>
        <mxCell id="y64R_HTfaRWRjPJeSL_5-104" value="Company_ID" style="text;strokeColor=none;fillColor=none;align=left;verticalAlign=middle;spacingLeft=4;spacingRight=4;overflow=hidden;points=[[0,0.5],[1,0.5]];portConstraint=eastwest;rotatable=0;whiteSpace=wrap;html=1;" parent="y64R_HTfaRWRjPJeSL_5-94" vertex="1">
          <mxGeometry y="150" width="140" height="30" as="geometry" />
        </mxCell>
        <mxCell id="y64R_HTfaRWRjPJeSL_5-106" value="Actors" style="swimlane;fontStyle=0;childLayout=stackLayout;horizontal=1;startSize=30;horizontalStack=0;resizeParent=1;resizeParentMax=0;resizeLast=0;collapsible=1;marginBottom=0;whiteSpace=wrap;html=1;" parent="1" vertex="1">
          <mxGeometry x="2070" y="360" width="140" height="180" as="geometry" />
        </mxCell>
        <mxCell id="y64R_HTfaRWRjPJeSL_5-107" value="Actor_ID" style="text;strokeColor=none;fillColor=none;align=left;verticalAlign=middle;spacingLeft=4;spacingRight=4;overflow=hidden;points=[[0,0.5],[1,0.5]];portConstraint=eastwest;rotatable=0;whiteSpace=wrap;html=1;" parent="y64R_HTfaRWRjPJeSL_5-106" vertex="1">
          <mxGeometry y="30" width="140" height="30" as="geometry" />
        </mxCell>
        <mxCell id="y64R_HTfaRWRjPJeSL_5-111" value="Firstname" style="text;strokeColor=none;fillColor=none;align=left;verticalAlign=middle;spacingLeft=4;spacingRight=4;overflow=hidden;points=[[0,0.5],[1,0.5]];portConstraint=eastwest;rotatable=0;whiteSpace=wrap;html=1;" parent="y64R_HTfaRWRjPJeSL_5-106" vertex="1">
          <mxGeometry y="60" width="140" height="30" as="geometry" />
        </mxCell>
        <mxCell id="y64R_HTfaRWRjPJeSL_5-113" value="Patronymic" style="text;strokeColor=none;fillColor=none;align=left;verticalAlign=middle;spacingLeft=4;spacingRight=4;overflow=hidden;points=[[0,0.5],[1,0.5]];portConstraint=eastwest;rotatable=0;whiteSpace=wrap;html=1;" parent="y64R_HTfaRWRjPJeSL_5-106" vertex="1">
          <mxGeometry y="90" width="140" height="30" as="geometry" />
        </mxCell>
        <mxCell id="y64R_HTfaRWRjPJeSL_5-112" value="Secondname" style="text;strokeColor=none;fillColor=none;align=left;verticalAlign=middle;spacingLeft=4;spacingRight=4;overflow=hidden;points=[[0,0.5],[1,0.5]];portConstraint=eastwest;rotatable=0;whiteSpace=wrap;html=1;" parent="y64R_HTfaRWRjPJeSL_5-106" vertex="1">
          <mxGeometry y="120" width="140" height="30" as="geometry" />
        </mxCell>
        <mxCell id="y64R_HTfaRWRjPJeSL_5-109" value="Birthday_Date" style="text;strokeColor=none;fillColor=none;align=left;verticalAlign=middle;spacingLeft=4;spacingRight=4;overflow=hidden;points=[[0,0.5],[1,0.5]];portConstraint=eastwest;rotatable=0;whiteSpace=wrap;html=1;" parent="y64R_HTfaRWRjPJeSL_5-106" vertex="1">
          <mxGeometry y="150" width="140" height="30" as="geometry" />
        </mxCell>
        <mxCell id="y64R_HTfaRWRjPJeSL_5-114" value="Actor_Movie" style="swimlane;fontStyle=0;childLayout=stackLayout;horizontal=1;startSize=30;horizontalStack=0;resizeParent=1;resizeParentMax=0;resizeLast=0;collapsible=1;marginBottom=0;whiteSpace=wrap;html=1;" parent="1" vertex="1">
          <mxGeometry x="2280" y="360" width="140" height="90" as="geometry" />
        </mxCell>
        <mxCell id="y64R_HTfaRWRjPJeSL_5-115" value="Actor_ID" style="text;strokeColor=none;fillColor=none;align=left;verticalAlign=middle;spacingLeft=4;spacingRight=4;overflow=hidden;points=[[0,0.5],[1,0.5]];portConstraint=eastwest;rotatable=0;whiteSpace=wrap;html=1;" parent="y64R_HTfaRWRjPJeSL_5-114" vertex="1">
          <mxGeometry y="30" width="140" height="30" as="geometry" />
        </mxCell>
        <mxCell id="y64R_HTfaRWRjPJeSL_5-116" value="Film_ID" style="text;strokeColor=none;fillColor=none;align=left;verticalAlign=middle;spacingLeft=4;spacingRight=4;overflow=hidden;points=[[0,0.5],[1,0.5]];portConstraint=eastwest;rotatable=0;whiteSpace=wrap;html=1;" parent="y64R_HTfaRWRjPJeSL_5-114" vertex="1">
          <mxGeometry y="60" width="140" height="30" as="geometry" />
        </mxCell>
        <mxCell id="y64R_HTfaRWRjPJeSL_5-118" value="FK" style="rounded=0;whiteSpace=wrap;html=1;" parent="1" vertex="1">
          <mxGeometry x="2391" y="390" width="30" height="60" as="geometry" />
        </mxCell>
        <mxCell id="y64R_HTfaRWRjPJeSL_5-119" style="edgeStyle=orthogonalEdgeStyle;rounded=0;orthogonalLoop=1;jettySize=auto;html=1;exitX=1;exitY=0.5;exitDx=0;exitDy=0;entryX=0;entryY=0.5;entryDx=0;entryDy=0;" parent="1" source="y64R_HTfaRWRjPJeSL_5-107" target="y64R_HTfaRWRjPJeSL_5-115" edge="1">
          <mxGeometry relative="1" as="geometry" />
        </mxCell>
        <mxCell id="y64R_HTfaRWRjPJeSL_5-120" style="rounded=0;orthogonalLoop=1;jettySize=auto;html=1;exitX=0;exitY=0.5;exitDx=0;exitDy=0;entryX=1;entryY=0.5;entryDx=0;entryDy=0;" parent="1" source="y64R_HTfaRWRjPJeSL_5-95" target="y64R_HTfaRWRjPJeSL_5-116" edge="1">
          <mxGeometry relative="1" as="geometry" />
        </mxCell>
        <mxCell id="y64R_HTfaRWRjPJeSL_5-125" value="Film_Crews" style="swimlane;fontStyle=0;childLayout=stackLayout;horizontal=1;startSize=30;horizontalStack=0;resizeParent=1;resizeParentMax=0;resizeLast=0;collapsible=1;marginBottom=0;whiteSpace=wrap;html=1;" parent="1" vertex="1">
          <mxGeometry x="2070" y="555" width="140" height="210" as="geometry" />
        </mxCell>
        <mxCell id="y64R_HTfaRWRjPJeSL_5-136" value="Film_Crew_ID" style="text;strokeColor=none;fillColor=none;align=left;verticalAlign=middle;spacingLeft=4;spacingRight=4;overflow=hidden;points=[[0,0.5],[1,0.5]];portConstraint=eastwest;rotatable=0;whiteSpace=wrap;html=1;" parent="y64R_HTfaRWRjPJeSL_5-125" vertex="1">
          <mxGeometry y="30" width="140" height="30" as="geometry" />
        </mxCell>
        <mxCell id="y64R_HTfaRWRjPJeSL_5-140" value="Birthday_Date" style="text;strokeColor=none;fillColor=none;align=left;verticalAlign=middle;spacingLeft=4;spacingRight=4;overflow=hidden;points=[[0,0.5],[1,0.5]];portConstraint=eastwest;rotatable=0;whiteSpace=wrap;html=1;" parent="y64R_HTfaRWRjPJeSL_5-125" vertex="1">
          <mxGeometry y="60" width="140" height="30" as="geometry" />
        </mxCell>
        <mxCell id="y64R_HTfaRWRjPJeSL_5-139" value="Secondname" style="text;strokeColor=none;fillColor=none;align=left;verticalAlign=middle;spacingLeft=4;spacingRight=4;overflow=hidden;points=[[0,0.5],[1,0.5]];portConstraint=eastwest;rotatable=0;whiteSpace=wrap;html=1;" parent="y64R_HTfaRWRjPJeSL_5-125" vertex="1">
          <mxGeometry y="90" width="140" height="30" as="geometry" />
        </mxCell>
        <mxCell id="y64R_HTfaRWRjPJeSL_5-138" value="Patronymic" style="text;strokeColor=none;fillColor=none;align=left;verticalAlign=middle;spacingLeft=4;spacingRight=4;overflow=hidden;points=[[0,0.5],[1,0.5]];portConstraint=eastwest;rotatable=0;whiteSpace=wrap;html=1;" parent="y64R_HTfaRWRjPJeSL_5-125" vertex="1">
          <mxGeometry y="120" width="140" height="30" as="geometry" />
        </mxCell>
        <mxCell id="y64R_HTfaRWRjPJeSL_5-137" value="Firstname" style="text;strokeColor=none;fillColor=none;align=left;verticalAlign=middle;spacingLeft=4;spacingRight=4;overflow=hidden;points=[[0,0.5],[1,0.5]];portConstraint=eastwest;rotatable=0;whiteSpace=wrap;html=1;" parent="y64R_HTfaRWRjPJeSL_5-125" vertex="1">
          <mxGeometry y="150" width="140" height="30" as="geometry" />
        </mxCell>
        <mxCell id="y64R_HTfaRWRjPJeSL_5-141" value="Position_ID" style="text;strokeColor=none;fillColor=none;align=left;verticalAlign=middle;spacingLeft=4;spacingRight=4;overflow=hidden;points=[[0,0.5],[1,0.5]];portConstraint=eastwest;rotatable=0;whiteSpace=wrap;html=1;" parent="y64R_HTfaRWRjPJeSL_5-125" vertex="1">
          <mxGeometry y="180" width="140" height="30" as="geometry" />
        </mxCell>
        <mxCell id="y64R_HTfaRWRjPJeSL_5-142" value="Positions" style="swimlane;fontStyle=0;childLayout=stackLayout;horizontal=1;startSize=30;horizontalStack=0;resizeParent=1;resizeParentMax=0;resizeLast=0;collapsible=1;marginBottom=0;whiteSpace=wrap;html=1;" parent="1" vertex="1">
          <mxGeometry x="2251" y="765" width="140" height="90" as="geometry" />
        </mxCell>
        <mxCell id="y64R_HTfaRWRjPJeSL_5-143" value="Position_ID" style="text;strokeColor=none;fillColor=none;align=left;verticalAlign=middle;spacingLeft=4;spacingRight=4;overflow=hidden;points=[[0,0.5],[1,0.5]];portConstraint=eastwest;rotatable=0;whiteSpace=wrap;html=1;" parent="y64R_HTfaRWRjPJeSL_5-142" vertex="1">
          <mxGeometry y="30" width="140" height="30" as="geometry" />
        </mxCell>
        <mxCell id="y64R_HTfaRWRjPJeSL_5-144" value="Name" style="text;strokeColor=none;fillColor=none;align=left;verticalAlign=middle;spacingLeft=4;spacingRight=4;overflow=hidden;points=[[0,0.5],[1,0.5]];portConstraint=eastwest;rotatable=0;whiteSpace=wrap;html=1;" parent="y64R_HTfaRWRjPJeSL_5-142" vertex="1">
          <mxGeometry y="60" width="140" height="30" as="geometry" />
        </mxCell>
        <mxCell id="y64R_HTfaRWRjPJeSL_5-146" style="rounded=0;orthogonalLoop=1;jettySize=auto;html=1;exitX=0;exitY=0.5;exitDx=0;exitDy=0;entryX=1;entryY=0.5;entryDx=0;entryDy=0;" parent="1" source="y64R_HTfaRWRjPJeSL_5-143" target="y64R_HTfaRWRjPJeSL_5-141" edge="1">
          <mxGeometry relative="1" as="geometry" />
        </mxCell>
        <mxCell id="y64R_HTfaRWRjPJeSL_5-147" value="Film_Crew_Film" style="swimlane;fontStyle=0;childLayout=stackLayout;horizontal=1;startSize=30;horizontalStack=0;resizeParent=1;resizeParentMax=0;resizeLast=0;collapsible=1;marginBottom=0;whiteSpace=wrap;html=1;" parent="1" vertex="1">
          <mxGeometry x="2270" y="555" width="140" height="90" as="geometry" />
        </mxCell>
        <mxCell id="y64R_HTfaRWRjPJeSL_5-148" value="Film_Crew_ID" style="text;strokeColor=none;fillColor=none;align=left;verticalAlign=middle;spacingLeft=4;spacingRight=4;overflow=hidden;points=[[0,0.5],[1,0.5]];portConstraint=eastwest;rotatable=0;whiteSpace=wrap;html=1;" parent="y64R_HTfaRWRjPJeSL_5-147" vertex="1">
          <mxGeometry y="30" width="140" height="30" as="geometry" />
        </mxCell>
        <mxCell id="y64R_HTfaRWRjPJeSL_5-149" value="Film_ID" style="text;strokeColor=none;fillColor=none;align=left;verticalAlign=middle;spacingLeft=4;spacingRight=4;overflow=hidden;points=[[0,0.5],[1,0.5]];portConstraint=eastwest;rotatable=0;whiteSpace=wrap;html=1;" parent="y64R_HTfaRWRjPJeSL_5-147" vertex="1">
          <mxGeometry y="60" width="140" height="30" as="geometry" />
        </mxCell>
        <mxCell id="y64R_HTfaRWRjPJeSL_5-151" style="edgeStyle=orthogonalEdgeStyle;rounded=0;orthogonalLoop=1;jettySize=auto;html=1;exitX=0;exitY=0.5;exitDx=0;exitDy=0;entryX=1;entryY=0.5;entryDx=0;entryDy=0;" parent="1" source="y64R_HTfaRWRjPJeSL_5-148" target="y64R_HTfaRWRjPJeSL_5-136" edge="1">
          <mxGeometry relative="1" as="geometry" />
        </mxCell>
        <mxCell id="y64R_HTfaRWRjPJeSL_5-153" value="FK" style="rounded=0;whiteSpace=wrap;html=1;" parent="1" vertex="1">
          <mxGeometry x="2380" y="585" width="30" height="60" as="geometry" />
        </mxCell>
        <mxCell id="y64R_HTfaRWRjPJeSL_5-154" style="rounded=0;orthogonalLoop=1;jettySize=auto;html=1;exitX=0;exitY=0.5;exitDx=0;exitDy=0;entryX=1;entryY=0.5;entryDx=0;entryDy=0;" parent="1" source="y64R_HTfaRWRjPJeSL_5-95" target="y64R_HTfaRWRjPJeSL_5-149" edge="1">
          <mxGeometry relative="1" as="geometry" />
        </mxCell>
        <mxCell id="y64R_HTfaRWRjPJeSL_5-156" value="" style="rounded=1;whiteSpace=wrap;html=1;" parent="1" vertex="1">
          <mxGeometry x="770" y="216" width="1180" height="630" as="geometry" />
        </mxCell>
        <mxCell id="y64R_HTfaRWRjPJeSL_5-158" value="Методы" style="text;html=1;strokeColor=none;fillColor=none;align=center;verticalAlign=middle;whiteSpace=wrap;rounded=0;" parent="1" vertex="1">
          <mxGeometry x="1320" y="235" width="60" height="30" as="geometry" />
        </mxCell>
        <mxCell id="y64R_HTfaRWRjPJeSL_5-159" value="&lt;ol&gt;&lt;li&gt;&amp;nbsp;Получить все фильмы&lt;/li&gt;&lt;li&gt;Получить всех актёров&lt;/li&gt;&lt;li&gt;Получить всех из съемочной команды&lt;/li&gt;&lt;li&gt;Получить все киностудии&lt;/li&gt;&lt;li&gt;Получить фильм по ID&lt;/li&gt;&lt;li&gt;Получить фильм по актеру&lt;/li&gt;&lt;li&gt;Получить всех актеров по фильму&lt;/li&gt;&lt;li&gt;Получить всю съемочную группу по фильму&lt;/li&gt;&lt;li&gt;Получить все фильмы киностудии&lt;/li&gt;&lt;li&gt;Добавить фильм&lt;/li&gt;&lt;li&gt;Добавить участника съемочной команды&lt;/li&gt;&lt;li&gt;Добавить актера&lt;/li&gt;&lt;li&gt;Добавить должность&lt;/li&gt;&lt;li&gt;Добавить киностудию&lt;/li&gt;&lt;li&gt;Обновить данные фильма&lt;/li&gt;&lt;li&gt;Обновить данные актёра&lt;br&gt;&lt;/li&gt;&lt;li&gt;Обновить данные съемочной команды&lt;br&gt;&lt;/li&gt;&lt;li&gt;Обновить данные киностудии&lt;br&gt;&lt;/li&gt;&lt;li&gt;Удалить фильм&lt;/li&gt;&lt;li&gt;Удалить актёра&lt;/li&gt;&lt;li&gt;Удалить съемочную команду&lt;/li&gt;&lt;li&gt;Удалить киностудию&lt;/li&gt;&lt;/ol&gt;" style="text;strokeColor=none;fillColor=none;html=1;whiteSpace=wrap;verticalAlign=middle;overflow=hidden;" parent="1" vertex="1">
          <mxGeometry x="870" y="346" width="780" height="500" as="geometry" />
        </mxCell>
        <mxCell id="y64R_HTfaRWRjPJeSL_5-160" value="Companies" style="swimlane;fontStyle=0;childLayout=stackLayout;horizontal=1;startSize=30;horizontalStack=0;resizeParent=1;resizeParentMax=0;resizeLast=0;collapsible=1;marginBottom=0;whiteSpace=wrap;html=1;" parent="1" vertex="1">
          <mxGeometry x="2880" y="350" width="140" height="90" as="geometry" />
        </mxCell>
        <mxCell id="y64R_HTfaRWRjPJeSL_5-161" value="Company_ID" style="text;strokeColor=none;fillColor=none;align=left;verticalAlign=middle;spacingLeft=4;spacingRight=4;overflow=hidden;points=[[0,0.5],[1,0.5]];portConstraint=eastwest;rotatable=0;whiteSpace=wrap;html=1;" parent="y64R_HTfaRWRjPJeSL_5-160" vertex="1">
          <mxGeometry y="30" width="140" height="30" as="geometry" />
        </mxCell>
        <mxCell id="y64R_HTfaRWRjPJeSL_5-162" value="Name" style="text;strokeColor=none;fillColor=none;align=left;verticalAlign=middle;spacingLeft=4;spacingRight=4;overflow=hidden;points=[[0,0.5],[1,0.5]];portConstraint=eastwest;rotatable=0;whiteSpace=wrap;html=1;" parent="y64R_HTfaRWRjPJeSL_5-160" vertex="1">
          <mxGeometry y="60" width="140" height="30" as="geometry" />
        </mxCell>
        <mxCell id="y64R_HTfaRWRjPJeSL_5-164" value="Company_Film" style="swimlane;fontStyle=0;childLayout=stackLayout;horizontal=1;startSize=30;horizontalStack=0;resizeParent=1;resizeParentMax=0;resizeLast=0;collapsible=1;marginBottom=0;whiteSpace=wrap;html=1;" parent="1" vertex="1">
          <mxGeometry x="2690" y="350" width="140" height="90" as="geometry" />
        </mxCell>
        <mxCell id="y64R_HTfaRWRjPJeSL_5-165" value="Company_ID" style="text;strokeColor=none;fillColor=none;align=left;verticalAlign=middle;spacingLeft=4;spacingRight=4;overflow=hidden;points=[[0,0.5],[1,0.5]];portConstraint=eastwest;rotatable=0;whiteSpace=wrap;html=1;" parent="y64R_HTfaRWRjPJeSL_5-164" vertex="1">
          <mxGeometry y="30" width="140" height="30" as="geometry" />
        </mxCell>
        <mxCell id="y64R_HTfaRWRjPJeSL_5-166" value="Film_ID" style="text;strokeColor=none;fillColor=none;align=left;verticalAlign=middle;spacingLeft=4;spacingRight=4;overflow=hidden;points=[[0,0.5],[1,0.5]];portConstraint=eastwest;rotatable=0;whiteSpace=wrap;html=1;" parent="y64R_HTfaRWRjPJeSL_5-164" vertex="1">
          <mxGeometry y="60" width="140" height="30" as="geometry" />
        </mxCell>
        <mxCell id="y64R_HTfaRWRjPJeSL_5-167" style="edgeStyle=orthogonalEdgeStyle;rounded=0;orthogonalLoop=1;jettySize=auto;html=1;exitX=1;exitY=0.5;exitDx=0;exitDy=0;entryX=0;entryY=0.5;entryDx=0;entryDy=0;" parent="1" source="y64R_HTfaRWRjPJeSL_5-95" target="y64R_HTfaRWRjPJeSL_5-166" edge="1">
          <mxGeometry relative="1" as="geometry" />
        </mxCell>
        <mxCell id="y64R_HTfaRWRjPJeSL_5-168" style="edgeStyle=orthogonalEdgeStyle;rounded=0;orthogonalLoop=1;jettySize=auto;html=1;exitX=0;exitY=0.5;exitDx=0;exitDy=0;entryX=1;entryY=0.5;entryDx=0;entryDy=0;" parent="1" source="y64R_HTfaRWRjPJeSL_5-161" target="y64R_HTfaRWRjPJeSL_5-165" edge="1">
          <mxGeometry relative="1" as="geometry" />
        </mxCell>
        <mxCell id="y64R_HTfaRWRjPJeSL_5-169" value="FK" style="rounded=0;whiteSpace=wrap;html=1;" parent="1" vertex="1">
          <mxGeometry x="2800" y="380" width="30" height="60" as="geometry" />
        </mxCell>
        <mxCell id="y64R_HTfaRWRjPJeSL_5-170" style="edgeStyle=orthogonalEdgeStyle;rounded=0;orthogonalLoop=1;jettySize=auto;html=1;exitX=0;exitY=0.5;exitDx=0;exitDy=0;entryX=1;entryY=0.5;entryDx=0;entryDy=0;" parent="1" source="y64R_HTfaRWRjPJeSL_5-95" target="y64R_HTfaRWRjPJeSL_5-22" edge="1">
          <mxGeometry relative="1" as="geometry">
            <mxPoint x="2484" y="400" as="sourcePoint" />
            <mxPoint x="394" y="95" as="targetPoint" />
            <Array as="points">
              <mxPoint x="2494" y="400" />
              <mxPoint x="2494" y="95" />
              <mxPoint x="450" y="95" />
              <mxPoint x="450" y="335" />
            </Array>
          </mxGeometry>
        </mxCell>
      </root>
    </mxGraphModel>
  </diagram>
</mxfile>
